<?xml version="1.0" encoding="UTF-8" standalone="no"?><!DOCTYPE svg PUBLIC "-//W3C//DTD SVG 1.1//EN" "http://www.w3.org/Graphics/SVG/1.1/DTD/svg11.dtd"><!-- Generated by graphviz version 2.40.1 (20161225.0304)
 --><!-- Title: snakemake_dag Pages: 1 --><svg xmlns="http://www.w3.org/2000/svg" xmlns:xlink="http://www.w3.org/1999/xlink" width="704pt" height="692pt" viewBox="0.00 0.00 703.91 692.00">
<g id="graph0" class="graph" transform="scale(1 1) rotate(0) translate(4 688)">
<title>snakemake_dag</title>
<polygon fill="#ffffff" stroke="transparent" points="-4,4 -4,-688 699.9123,-688 699.9123,4 -4,4"/>
<!-- 1 -->
<g id="node1" class="node">
<title>1</title>
<path fill="none" stroke="#56d8c9" stroke-width="2" d="M227,-684C227,-684 197,-684 197,-684 191,-684 185,-678 185,-672 185,-672 185,-660 185,-660 185,-654 191,-648 197,-648 197,-648 227,-648 227,-648 233,-648 239,-654 239,-660 239,-660 239,-672 239,-672 239,-678 233,-684 227,-684"/>
<text text-anchor="middle" x="212" y="-661.5" font-family="sans" font-size="15.00" fill="#000000">Fastp</text>
</g>
<!-- 5 -->
<g id="node5" class="node">
<title>5</title>
<path fill="none" stroke="#56d892" stroke-width="2" d="M146.4911,-612C146.4911,-612 111.5089,-612 111.5089,-612 105.5089,-612 99.5089,-606 99.5089,-600 99.5089,-600 99.5089,-588 99.5089,-588 99.5089,-582 105.5089,-576 111.5089,-576 111.5089,-576 146.4911,-576 146.4911,-576 152.4911,-576 158.4911,-582 158.4911,-588 158.4911,-588 158.4911,-600 158.4911,-600 158.4911,-606 152.4911,-612 146.4911,-612"/>
<text text-anchor="middle" x="129" y="-589.5" font-family="sans" font-size="15.00" fill="#000000">Spades</text>
</g>
<!-- 1&#45;&gt;5 -->
<g id="edge1" class="edge">
<title>1-&gt;5</title>
<path fill="none" stroke="#c0c0c0" stroke-width="2" d="M191.0556,-647.8314C180.9309,-639.0485 168.6223,-628.3712 157.6452,-618.8489"/>
<polygon fill="#c0c0c0" stroke="#c0c0c0" stroke-width="2" points="159.7851,-616.0718 149.9377,-612.1628 155.1981,-621.3595 159.7851,-616.0718"/>
</g>
<!-- 8 -->
<g id="node8" class="node">
<title>8</title>
<path fill="none" stroke="#5673d8" stroke-width="2" d="M182.3098,-396C182.3098,-396 139.6902,-396 139.6902,-396 133.6902,-396 127.6902,-390 127.6902,-384 127.6902,-384 127.6902,-372 127.6902,-372 127.6902,-366 133.6902,-360 139.6902,-360 139.6902,-360 182.3098,-360 182.3098,-360 188.3098,-360 194.3098,-366 194.3098,-372 194.3098,-372 194.3098,-384 194.3098,-384 194.3098,-390 188.3098,-396 182.3098,-396"/>
<text text-anchor="middle" x="161" y="-373.5" font-family="sans" font-size="15.00" fill="#000000">qc_filter</text>
</g>
<!-- 1&#45;&gt;8 -->
<g id="edge4" class="edge">
<title>1-&gt;8</title>
<path fill="none" stroke="#c0c0c0" stroke-width="2" d="M213.2505,-647.8594C215.4302,-607.8173 217.5877,-509.2932 193,-432 190.0403,-422.696 185.2328,-413.2902 180.2334,-404.9935"/>
<polygon fill="#c0c0c0" stroke="#c0c0c0" stroke-width="2" points="183.1366,-403.0365 174.8115,-396.4834 177.2329,-406.7978 183.1366,-403.0365"/>
</g>
<!-- 17 -->
<g id="node17" class="node">
<title>17</title>
<path fill="none" stroke="#8fd856" stroke-width="2" d="M322.1712,-36C322.1712,-36 275.8288,-36 275.8288,-36 269.8288,-36 263.8288,-30 263.8288,-24 263.8288,-24 263.8288,-12 263.8288,-12 263.8288,-6 269.8288,0 275.8288,0 275.8288,0 322.1712,0 322.1712,0 328.1712,0 334.1712,-6 334.1712,-12 334.1712,-12 334.1712,-24 334.1712,-24 334.1712,-30 328.1712,-36 322.1712,-36"/>
<text text-anchor="middle" x="299" y="-13.5" font-family="sans" font-size="15.00" fill="#000000">MultiQC</text>
</g>
<!-- 1&#45;&gt;17 -->
<g id="edge23" class="edge">
<title>1-&gt;17</title>
<path fill="none" stroke="#c0c0c0" stroke-width="2" d="M239.1875,-657.6161C288.125,-640.6431 386,-597.2861 386,-522 386,-522 386,-522 386,-234 386,-159.943 382.4265,-137.0339 347,-72 341.4872,-61.8799 333.749,-52.0686 326.0927,-43.6478"/>
<polygon fill="#c0c0c0" stroke="#c0c0c0" stroke-width="2" points="328.5744,-41.1784 319.1507,-36.3365 323.4981,-45.9983 328.5744,-41.1784"/>
</g>
<!-- 2 -->
<g id="node2" class="node">
<title>2</title>
<path fill="none" stroke="#56d873" stroke-width="2" d="M437.6577,-108C437.6577,-108 406.3423,-108 406.3423,-108 400.3423,-108 394.3423,-102 394.3423,-96 394.3423,-96 394.3423,-84 394.3423,-84 394.3423,-78 400.3423,-72 406.3423,-72 406.3423,-72 437.6577,-72 437.6577,-72 443.6577,-72 449.6577,-78 449.6577,-84 449.6577,-84 449.6577,-96 449.6577,-96 449.6577,-102 443.6577,-108 437.6577,-108"/>
<text text-anchor="middle" x="422" y="-85.5" font-family="sans" font-size="15.00" fill="#000000">Fastqc</text>
</g>
<!-- 2&#45;&gt;17 -->
<g id="edge20" class="edge">
<title>2-&gt;17</title>
<path fill="none" stroke="#c0c0c0" stroke-width="2" d="M394.3964,-73.8418C377.9618,-64.2216 356.8308,-51.8522 338.6354,-41.2012"/>
<polygon fill="#c0c0c0" stroke="#c0c0c0" stroke-width="2" points="340.3706,-38.1614 329.9723,-36.1301 336.8343,-44.2025 340.3706,-38.1614"/>
</g>
<!-- 3 -->
<g id="node3" class="node">
<title>3</title>
<path fill="none" stroke="#59d856" stroke-width="2" d="M516.1392,-108C516.1392,-108 479.8608,-108 479.8608,-108 473.8608,-108 467.8608,-102 467.8608,-96 467.8608,-96 467.8608,-84 467.8608,-84 467.8608,-78 473.8608,-72 479.8608,-72 479.8608,-72 516.1392,-72 516.1392,-72 522.1392,-72 528.1392,-78 528.1392,-84 528.1392,-84 528.1392,-96 528.1392,-96 528.1392,-102 522.1392,-108 516.1392,-108"/>
<text text-anchor="middle" x="498" y="-85.5" font-family="sans" font-size="15.00" fill="#000000">Kraken</text>
</g>
<!-- 3&#45;&gt;17 -->
<g id="edge19" class="edge">
<title>3-&gt;17</title>
<path fill="none" stroke="#c0c0c0" stroke-width="2" d="M467.9048,-75.7235C464.9146,-74.4217 461.9098,-73.1587 459,-72 420.7403,-56.7651 376.2947,-41.9909 343.9709,-31.7588"/>
<polygon fill="#c0c0c0" stroke="#c0c0c0" stroke-width="2" points="344.9382,-28.394 334.3488,-28.7336 342.8387,-35.0718 344.9382,-28.394"/>
</g>
<!-- 4 -->
<g id="node4" class="node">
<title>4</title>
<path fill="none" stroke="#5692d8" stroke-width="2" d="M615.0091,-180C615.0091,-180 580.9909,-180 580.9909,-180 574.9909,-180 568.9909,-174 568.9909,-168 568.9909,-168 568.9909,-156 568.9909,-156 568.9909,-150 574.9909,-144 580.9909,-144 580.9909,-144 615.0091,-144 615.0091,-144 621.0091,-144 627.0091,-150 627.0091,-156 627.0091,-156 627.0091,-168 627.0091,-168 627.0091,-174 621.0091,-180 615.0091,-180"/>
<text text-anchor="middle" x="598" y="-157.5" font-family="sans" font-size="15.00" fill="#000000">Snippy</text>
</g>
<!-- 15 -->
<g id="node15" class="node">
<title>15</title>
<path fill="none" stroke="#c6d856" stroke-width="2" d="M683.8246,-108C683.8246,-108 596.1754,-108 596.1754,-108 590.1754,-108 584.1754,-102 584.1754,-96 584.1754,-96 584.1754,-84 584.1754,-84 584.1754,-78 590.1754,-72 596.1754,-72 596.1754,-72 683.8246,-72 683.8246,-72 689.8246,-72 695.8246,-78 695.8246,-84 695.8246,-84 695.8246,-96 695.8246,-96 695.8246,-102 689.8246,-108 683.8246,-108"/>
<text text-anchor="middle" x="640" y="-85.5" font-family="sans" font-size="15.00" fill="#000000">snippy_compile</text>
</g>
<!-- 4&#45;&gt;15 -->
<g id="edge13" class="edge">
<title>4-&gt;15</title>
<path fill="none" stroke="#c0c0c0" stroke-width="2" d="M608.5984,-143.8314C613.2877,-135.7925 618.9028,-126.1666 624.0798,-117.2918"/>
<polygon fill="#c0c0c0" stroke="#c0c0c0" stroke-width="2" points="627.2434,-118.8146 629.2589,-108.4133 621.1969,-115.2875 627.2434,-118.8146"/>
</g>
<!-- 4&#45;&gt;17 -->
<g id="edge24" class="edge">
<title>4-&gt;17</title>
<path fill="none" stroke="#c0c0c0" stroke-width="2" d="M590.615,-143.7464C581.2748,-123.0541 563.1881,-89.8827 537,-72 506.0734,-50.8816 404.3747,-33.1804 344.3896,-24.2467"/>
<polygon fill="#c0c0c0" stroke="#c0c0c0" stroke-width="2" points="344.8214,-20.7727 334.4195,-22.7853 343.8062,-27.6987 344.8214,-20.7727"/>
</g>
<!-- 6 -->
<g id="node6" class="node">
<title>6</title>
<path fill="none" stroke="#70d856" stroke-width="2" d="M122.9645,-540C122.9645,-540 61.0355,-540 61.0355,-540 55.0355,-540 49.0355,-534 49.0355,-528 49.0355,-528 49.0355,-516 49.0355,-516 49.0355,-510 55.0355,-504 61.0355,-504 61.0355,-504 122.9645,-504 122.9645,-504 128.9645,-504 134.9645,-510 134.9645,-516 134.9645,-516 134.9645,-528 134.9645,-528 134.9645,-534 128.9645,-540 122.9645,-540"/>
<text text-anchor="middle" x="92" y="-517.5" font-family="sans" font-size="15.00" fill="#000000">fcs_adaptor</text>
</g>
<!-- 5&#45;&gt;6 -->
<g id="edge2" class="edge">
<title>5-&gt;6</title>
<path fill="none" stroke="#c0c0c0" stroke-width="2" d="M119.6633,-575.8314C115.5757,-567.8771 110.6896,-558.369 106.1691,-549.5723"/>
<polygon fill="#c0c0c0" stroke="#c0c0c0" stroke-width="2" points="109.1461,-547.7078 101.4624,-540.4133 102.9201,-550.9074 109.1461,-547.7078"/>
</g>
<!-- 9 -->
<g id="node9" class="node">
<title>9</title>
<path fill="none" stroke="#56c9d8" stroke-width="2" d="M172.1161,-468C172.1161,-468 73.8839,-468 73.8839,-468 67.8839,-468 61.8839,-462 61.8839,-456 61.8839,-456 61.8839,-444 61.8839,-444 61.8839,-438 67.8839,-432 73.8839,-432 73.8839,-432 172.1161,-432 172.1161,-432 178.1161,-432 184.1161,-438 184.1161,-444 184.1161,-444 184.1161,-456 184.1161,-456 184.1161,-462 178.1161,-468 172.1161,-468"/>
<text text-anchor="middle" x="123" y="-445.5" font-family="sans" font-size="15.00" fill="#000000">fcs_adaptor_filter</text>
</g>
<!-- 5&#45;&gt;9 -->
<g id="edge6" class="edge">
<title>5-&gt;9</title>
<path fill="none" stroke="#c0c0c0" stroke-width="2" d="M135.8289,-575.6901C141.7329,-557.4775 148.644,-528.7546 144,-504 142.365,-495.2844 139.3657,-486.1679 136.1358,-477.9601"/>
<polygon fill="#c0c0c0" stroke="#c0c0c0" stroke-width="2" points="139.2566,-476.352 132.1577,-468.4871 132.8026,-479.0623 139.2566,-476.352"/>
</g>
<!-- 5&#45;&gt;17 -->
<g id="edge21" class="edge">
<title>5-&gt;17</title>
<path fill="none" stroke="#c0c0c0" stroke-width="2" d="M99.3722,-581.6893C80.3441,-572.5364 56.241,-558.4492 40,-540 11.0768,-507.1443 0,-493.7727 0,-450 0,-450 0,-450 0,-162 0,-105.1163 41.549,-100.1132 91,-72 142.3448,-42.8102 209.7283,-29.0718 253.6793,-22.8372"/>
<polygon fill="#c0c0c0" stroke="#c0c0c0" stroke-width="2" points="254.3338,-26.2807 263.7777,-21.4783 253.4002,-19.3433 254.3338,-26.2807"/>
</g>
<!-- 6&#45;&gt;9 -->
<g id="edge7" class="edge">
<title>6-&gt;9</title>
<path fill="none" stroke="#c0c0c0" stroke-width="2" d="M99.8226,-503.8314C103.2109,-495.9617 107.2541,-486.5712 111.0076,-477.8533"/>
<polygon fill="#c0c0c0" stroke="#c0c0c0" stroke-width="2" points="114.3321,-478.9822 115.0721,-468.4133 107.9027,-476.214 114.3321,-478.9822"/>
</g>
<!-- 7 -->
<g id="node7" class="node">
<title>7</title>
<path fill="none" stroke="#56d8a9" stroke-width="2" d="M205.999,-252C205.999,-252 174.001,-252 174.001,-252 168.001,-252 162.001,-246 162.001,-240 162.001,-240 162.001,-228 162.001,-228 162.001,-222 168.001,-216 174.001,-216 174.001,-216 205.999,-216 205.999,-216 211.999,-216 217.999,-222 217.999,-228 217.999,-228 217.999,-240 217.999,-240 217.999,-246 211.999,-252 205.999,-252"/>
<text text-anchor="middle" x="190" y="-229.5" font-family="sans" font-size="15.00" fill="#000000">MLST</text>
</g>
<!-- 7&#45;&gt;17 -->
<g id="edge22" class="edge">
<title>7-&gt;17</title>
<path fill="none" stroke="#c0c0c0" stroke-width="2" d="M187.7358,-215.7688C184.7349,-183.8615 182.8201,-117.0137 212,-72 222.1851,-56.2881 238.7166,-44.364 254.6481,-35.7705"/>
<polygon fill="#c0c0c0" stroke="#c0c0c0" stroke-width="2" points="256.5597,-38.726 263.9064,-31.0922 253.4026,-32.4784 256.5597,-38.726"/>
</g>
<!-- 8&#45;&gt;7 -->
<g id="edge3" class="edge">
<title>8-&gt;7</title>
<path fill="none" stroke="#c0c0c0" stroke-width="2" d="M164.6729,-359.7623C169.641,-335.0928 178.5491,-290.8598 184.3665,-261.9731"/>
<polygon fill="#c0c0c0" stroke="#c0c0c0" stroke-width="2" points="187.8137,-262.5838 186.357,-252.0896 180.9515,-261.2018 187.8137,-262.5838"/>
</g>
<!-- 10 -->
<g id="node10" class="node">
<title>10</title>
<path fill="none" stroke="#d88d56" stroke-width="2" d="M263.4926,-324C263.4926,-324 228.5074,-324 228.5074,-324 222.5074,-324 216.5074,-318 216.5074,-312 216.5074,-312 216.5074,-300 216.5074,-300 216.5074,-294 222.5074,-288 228.5074,-288 228.5074,-288 263.4926,-288 263.4926,-288 269.4926,-288 275.4926,-294 275.4926,-300 275.4926,-300 275.4926,-312 275.4926,-312 275.4926,-318 269.4926,-324 263.4926,-324"/>
<text text-anchor="middle" x="246" y="-301.5" font-family="sans" font-size="15.00" fill="#000000">Prokka</text>
</g>
<!-- 8&#45;&gt;10 -->
<g id="edge8" class="edge">
<title>8-&gt;10</title>
<path fill="none" stroke="#c0c0c0" stroke-width="2" d="M182.4491,-359.8314C192.8178,-351.0485 205.4229,-340.3712 216.6646,-330.8489"/>
<polygon fill="#c0c0c0" stroke="#c0c0c0" stroke-width="2" points="219.1895,-333.297 224.5578,-324.1628 214.6651,-327.9556 219.1895,-333.297"/>
</g>
<!-- 14 -->
<g id="node14" class="node">
<title>14</title>
<path fill="none" stroke="#d85656" stroke-width="2" d="M93.7394,-252C93.7394,-252 40.2606,-252 40.2606,-252 34.2606,-252 28.2606,-246 28.2606,-240 28.2606,-240 28.2606,-228 28.2606,-228 28.2606,-222 34.2606,-216 40.2606,-216 40.2606,-216 93.7394,-216 93.7394,-216 99.7394,-216 105.7394,-222 105.7394,-228 105.7394,-228 105.7394,-240 105.7394,-240 105.7394,-246 99.7394,-252 93.7394,-252"/>
<text text-anchor="middle" x="67" y="-229.5" font-family="sans" font-size="15.00" fill="#000000">PA Group</text>
</g>
<!-- 8&#45;&gt;14 -->
<g id="edge12" class="edge">
<title>8-&gt;14</title>
<path fill="none" stroke="#c0c0c0" stroke-width="2" d="M133.8289,-359.8569C121.4477,-350.417 107.4742,-337.9396 98,-324 85.2832,-305.2894 77.3024,-280.854 72.6288,-262.1666"/>
<polygon fill="#c0c0c0" stroke="#c0c0c0" stroke-width="2" points="75.981,-261.1292 70.306,-252.1824 69.1631,-262.7154 75.981,-261.1292"/>
</g>
<!-- 16 -->
<g id="node16" class="node">
<title>16</title>
<path fill="none" stroke="#56a9d8" stroke-width="2" d="M149,-324C149,-324 119,-324 119,-324 113,-324 107,-318 107,-312 107,-312 107,-300 107,-300 107,-294 113,-288 119,-288 119,-288 149,-288 149,-288 155,-288 161,-294 161,-300 161,-300 161,-312 161,-312 161,-318 155,-324 149,-324"/>
<text text-anchor="middle" x="134" y="-301.5" font-family="sans" font-size="15.00" fill="#000000">Quast</text>
</g>
<!-- 8&#45;&gt;16 -->
<g id="edge14" class="edge">
<title>8-&gt;16</title>
<path fill="none" stroke="#c0c0c0" stroke-width="2" d="M154.1868,-359.8314C151.2356,-351.9617 147.7142,-342.5712 144.445,-333.8533"/>
<polygon fill="#c0c0c0" stroke="#c0c0c0" stroke-width="2" points="147.6934,-332.5476 140.905,-324.4133 141.1391,-335.0055 147.6934,-332.5476"/>
</g>
<!-- 9&#45;&gt;8 -->
<g id="edge5" class="edge">
<title>9-&gt;8</title>
<path fill="none" stroke="#c0c0c0" stroke-width="2" d="M132.589,-431.8314C136.8317,-423.7925 141.9121,-414.1666 146.596,-405.2918"/>
<polygon fill="#c0c0c0" stroke="#c0c0c0" stroke-width="2" points="149.7096,-406.8908 151.2819,-396.4133 143.5189,-403.6235 149.7096,-406.8908"/>
</g>
<!-- 13 -->
<g id="node13" class="node">
<title>13</title>
<path fill="none" stroke="#afd856" stroke-width="2" d="M322.4911,-252C322.4911,-252 287.5089,-252 287.5089,-252 281.5089,-252 275.5089,-246 275.5089,-240 275.5089,-240 275.5089,-228 275.5089,-228 275.5089,-222 281.5089,-216 287.5089,-216 287.5089,-216 322.4911,-216 322.4911,-216 328.4911,-216 334.4911,-222 334.4911,-228 334.4911,-228 334.4911,-240 334.4911,-240 334.4911,-246 328.4911,-252 322.4911,-252"/>
<text text-anchor="middle" x="305" y="-229.5" font-family="sans" font-size="15.00" fill="#000000">AGEnt</text>
</g>
<!-- 10&#45;&gt;13 -->
<g id="edge11" class="edge">
<title>10-&gt;13</title>
<path fill="none" stroke="#c0c0c0" stroke-width="2" d="M260.8882,-287.8314C267.753,-279.454 276.0301,-269.3531 283.5511,-260.1749"/>
<polygon fill="#c0c0c0" stroke="#c0c0c0" stroke-width="2" points="286.2803,-262.3665 289.9114,-252.4133 280.8659,-257.9297 286.2803,-262.3665"/>
</g>
<!-- 10&#45;&gt;17 -->
<g id="edge16" class="edge">
<title>10-&gt;17</title>
<path fill="none" stroke="#c0c0c0" stroke-width="2" d="M241.9568,-287.7251C233.868,-246.9986 219.0668,-146.5108 251,-72 255.4639,-61.5841 262.7552,-51.7946 270.3223,-43.4866"/>
<polygon fill="#c0c0c0" stroke="#c0c0c0" stroke-width="2" points="272.8391,-45.9189 277.276,-36.2978 267.8077,-41.052 272.8391,-45.9189"/>
</g>
<!-- 11 -->
<g id="node11" class="node">
<title>11</title>
<path fill="none" stroke="#d8ac56" stroke-width="2" d="M326.4961,-108C326.4961,-108 271.5039,-108 271.5039,-108 265.5039,-108 259.5039,-102 259.5039,-96 259.5039,-96 259.5039,-84 259.5039,-84 259.5039,-78 265.5039,-72 271.5039,-72 271.5039,-72 326.4961,-72 326.4961,-72 332.4961,-72 338.4961,-78 338.4961,-84 338.4961,-84 338.4961,-96 338.4961,-96 338.4961,-102 332.4961,-108 326.4961,-108"/>
<text text-anchor="middle" x="299" y="-85.5" font-family="sans" font-size="15.00" fill="#000000">ClustAGE</text>
</g>
<!-- 11&#45;&gt;17 -->
<g id="edge17" class="edge">
<title>11-&gt;17</title>
<path fill="none" stroke="#c0c0c0" stroke-width="2" d="M299,-71.8314C299,-64.131 299,-54.9743 299,-46.4166"/>
<polygon fill="#c0c0c0" stroke="#c0c0c0" stroke-width="2" points="302.5001,-46.4132 299,-36.4133 295.5001,-46.4133 302.5001,-46.4132"/>
</g>
<!-- 12 -->
<g id="node12" class="node">
<title>12</title>
<path fill="none" stroke="#d8cb56" stroke-width="2" d="M345.9841,-180C345.9841,-180 266.0159,-180 266.0159,-180 260.0159,-180 254.0159,-174 254.0159,-168 254.0159,-168 254.0159,-156 254.0159,-156 254.0159,-150 260.0159,-144 266.0159,-144 266.0159,-144 345.9841,-144 345.9841,-144 351.9841,-144 357.9841,-150 357.9841,-156 357.9841,-156 357.9841,-168 357.9841,-168 357.9841,-174 351.9841,-180 345.9841,-180"/>
<text text-anchor="middle" x="306" y="-157.5" font-family="sans" font-size="15.00" fill="#000000">clustage_input</text>
</g>
<!-- 12&#45;&gt;11 -->
<g id="edge9" class="edge">
<title>12-&gt;11</title>
<path fill="none" stroke="#c0c0c0" stroke-width="2" d="M304.2336,-143.8314C303.485,-136.131 302.5947,-126.9743 301.7627,-118.4166"/>
<polygon fill="#c0c0c0" stroke="#c0c0c0" stroke-width="2" points="305.2415,-118.0276 300.7902,-108.4133 298.2744,-118.7051 305.2415,-118.0276"/>
</g>
<!-- 13&#45;&gt;12 -->
<g id="edge10" class="edge">
<title>13-&gt;12</title>
<path fill="none" stroke="#c0c0c0" stroke-width="2" d="M305.2523,-215.8314C305.3593,-208.131 305.4865,-198.9743 305.6053,-190.4166"/>
<polygon fill="#c0c0c0" stroke="#c0c0c0" stroke-width="2" points="309.1049,-190.4609 305.7443,-180.4133 302.1056,-190.3637 309.1049,-190.4609"/>
</g>
<!-- 14&#45;&gt;17 -->
<g id="edge15" class="edge">
<title>14-&gt;17</title>
<path fill="none" stroke="#c0c0c0" stroke-width="2" d="M67.6789,-215.8727C69.9179,-182.6074 79.4674,-111.6034 120,-72 139.0884,-53.3492 207.5065,-36.3788 254.0077,-26.625"/>
<polygon fill="#c0c0c0" stroke="#c0c0c0" stroke-width="2" points="254.7726,-30.041 263.8616,-24.5967 253.3613,-23.1848 254.7726,-30.041"/>
</g>
<!-- 15&#45;&gt;17 -->
<g id="edge18" class="edge">
<title>15-&gt;17</title>
<path fill="none" stroke="#c0c0c0" stroke-width="2" d="M583.9022,-75.2854C579.207,-74.142 574.5266,-73.0322 570,-72 490.9061,-53.9649 398.0581,-36.1943 344.1377,-26.2079"/>
<polygon fill="#c0c0c0" stroke="#c0c0c0" stroke-width="2" points="344.6807,-22.7491 334.2116,-24.3761 343.4103,-29.6329 344.6807,-22.7491"/>
</g>
<!-- 16&#45;&gt;17 -->
<g id="edge25" class="edge">
<title>16-&gt;17</title>
<path fill="none" stroke="#c0c0c0" stroke-width="2" d="M133.5225,-287.9044C133.351,-245.3384 138.5788,-137.5298 192,-72 207.9196,-52.472 232.7166,-39.3364 254.4322,-30.9149"/>
<polygon fill="#c0c0c0" stroke="#c0c0c0" stroke-width="2" points="255.6401,-34.1999 263.8315,-27.4804 253.2376,-27.6251 255.6401,-34.1999"/>
</g>
</g>
</svg>